<?xml version='1.0' encoding='UTF-8'?>
<svg width="51.6mm" height="51.6mm" version="1.1" viewBox="0 0 51.6 51.6" fill_color="#0f3460" back_color="white" xmlns="http://www.w3.org/2000/svg"><path d="M3.6,3.6H4.8V4.8H3.6zM4.8,3.6H6V4.8H4.8zM6,3.6H7.2V4.8H6zM7.2,3.6H8.4V4.8H7.2zM8.4,3.6H9.6V4.8H8.4zM9.6,3.6H10.8V4.8H9.6zM10.8,3.6H12V4.8H10.8zM13.2,3.6H14.4V4.8H13.2zM15.6,3.6H16.8V4.8H15.6zM18,3.6H19.2V4.8H18zM19.2,3.6H20.4V4.8H19.2zM20.4,3.6H21.6V4.8H20.4zM28.8,3.6H30V4.8H28.8zM33.6,3.6H34.8V4.8H33.6zM37.2,3.6H38.4V4.8H37.2zM39.6,3.6H40.8V4.8H39.6zM40.8,3.6H42V4.8H40.8zM42,3.6H43.2V4.8H42zM43.2,3.6H44.4V4.8H43.2zM44.4,3.6H45.6V4.8H44.4zM45.6,3.6H46.8V4.8H45.6zM46.8,3.6H48V4.8H46.8zM3.6,4.8H4.8V6H3.6zM10.8,4.8H12V6H10.8zM13.2,4.8H14.4V6H13.2zM14.4,4.8H15.6V6H14.4zM18,4.8H19.2V6H18zM19.2,4.8H20.4V6H19.2zM20.4,4.8H21.6V6H20.4zM22.8,4.8H24V6H22.8zM24,4.8H25.2V6H24zM25.2,4.8H26.4V6H25.2zM26.4,4.8H27.6V6H26.4zM28.8,4.8H30V6H28.8zM30,4.8H31.2V6H30zM31.2,4.8H32.4V6H31.2zM32.4,4.8H33.6V6H32.4zM36,4.8H37.2V6H36zM37.2,4.8H38.4V6H37.2zM39.6,4.8H40.8V6H39.6zM46.8,4.8H48V6H46.8zM3.6,6H4.8V7.2H3.6zM6,6H7.2V7.2H6zM7.2,6H8.4V7.2H7.2zM8.4,6H9.6V7.2H8.4zM10.8,6H12V7.2H10.8zM13.2,6H14.4V7.2H13.2zM15.6,6H16.8V7.2H15.6zM16.8,6H18V7.2H16.8zM19.2,6H20.4V7.2H19.2zM20.4,6H21.6V7.2H20.4zM21.6,6H22.8V7.2H21.6zM27.6,6H28.8V7.2H27.6zM30,6H31.2V7.2H30zM32.4,6H33.6V7.2H32.4zM34.8,6H36V7.2H34.8zM36,6H37.2V7.2H36zM37.2,6H38.4V7.2H37.2zM39.6,6H40.8V7.2H39.6zM42,6H43.2V7.2H42zM43.2,6H44.4V7.2H43.2zM44.4,6H45.6V7.2H44.4zM46.8,6H48V7.2H46.8zM3.6,7.2H4.8V8.4H3.6zM6,7.2H7.2V8.4H6zM7.2,7.2H8.4V8.4H7.2zM8.4,7.2H9.6V8.4H8.4zM10.8,7.2H12V8.4H10.8zM15.6,7.2H16.8V8.4H15.6zM16.8,7.2H18V8.4H16.8zM19.2,7.2H20.4V8.4H19.2zM28.8,7.2H30V8.4H28.8zM30,7.2H31.2V8.4H30zM31.2,7.2H32.4V8.4H31.2zM33.6,7.2H34.8V8.4H33.6zM34.8,7.2H36V8.4H34.8zM36,7.2H37.2V8.4H36zM39.6,7.2H40.8V8.4H39.6zM42,7.2H43.2V8.4H42zM43.2,7.2H44.4V8.4H43.2zM44.4,7.2H45.6V8.4H44.4zM46.8,7.2H48V8.4H46.8zM3.6,8.4H4.8V9.6H3.6zM6,8.4H7.2V9.6H6zM7.2,8.4H8.4V9.6H7.2zM8.4,8.4H9.6V9.6H8.4zM10.8,8.4H12V9.6H10.8zM15.6,8.4H16.8V9.6H15.6zM18,8.4H19.2V9.6H18zM21.6,8.4H22.8V9.6H21.6zM22.8,8.4H24V9.6H22.8zM24,8.4H25.2V9.6H24zM28.8,8.4H30V9.6H28.8zM33.6,8.4H34.8V9.6H33.6zM39.6,8.4H40.8V9.6H39.6zM42,8.4H43.2V9.6H42zM43.2,8.4H44.4V9.6H43.2zM44.4,8.4H45.6V9.6H44.4zM46.8,8.4H48V9.6H46.8zM3.6,9.6H4.8V10.8H3.6zM10.8,9.6H12V10.8H10.8zM13.2,9.6H14.4V10.8H13.2zM15.6,9.6H16.8V10.8H15.6zM18,9.6H19.2V10.8H18zM20.4,9.6H21.6V10.8H20.4zM21.6,9.6H22.8V10.8H21.6zM22.8,9.6H24V10.8H22.8zM25.2,9.6H26.4V10.8H25.2zM28.8,9.6H30V10.8H28.8zM32.4,9.6H33.6V10.8H32.4zM33.6,9.6H34.8V10.8H33.6zM34.8,9.6H36V10.8H34.8zM36,9.6H37.2V10.8H36zM37.2,9.6H38.4V10.8H37.2zM39.6,9.6H40.8V10.8H39.6zM46.8,9.6H48V10.8H46.8zM3.6,10.8H4.8V12H3.6zM4.8,10.8H6V12H4.8zM6,10.8H7.2V12H6zM7.2,10.8H8.4V12H7.2zM8.4,10.8H9.6V12H8.4zM9.6,10.8H10.8V12H9.6zM10.8,10.8H12V12H10.8zM13.2,10.8H14.4V12H13.2zM15.6,10.8H16.8V12H15.6zM18,10.8H19.2V12H18zM20.4,10.8H21.6V12H20.4zM22.8,10.8H24V12H22.8zM25.2,10.8H26.4V12H25.2zM27.6,10.8H28.8V12H27.6zM30,10.8H31.2V12H30zM32.4,10.8H33.6V12H32.4zM34.8,10.8H36V12H34.8zM37.2,10.8H38.4V12H37.2zM39.6,10.8H40.8V12H39.6zM40.8,10.8H42V12H40.8zM42,10.8H43.2V12H42zM43.2,10.8H44.4V12H43.2zM44.4,10.8H45.6V12H44.4zM45.6,10.8H46.8V12H45.6zM46.8,10.8H48V12H46.8zM13.2,12H14.4V13.2H13.2zM15.6,12H16.8V13.2H15.6zM18,12H19.2V13.2H18zM20.4,12H21.6V13.2H20.4zM22.8,12H24V13.2H22.8zM24,12H25.2V13.2H24zM25.2,12H26.4V13.2H25.2zM26.4,12H27.6V13.2H26.4zM30,12H31.2V13.2H30zM31.2,12H32.4V13.2H31.2zM32.4,12H33.6V13.2H32.4zM33.6,12H34.8V13.2H33.6zM37.2,12H38.4V13.2H37.2zM6,13.2H7.2V14.4H6zM7.2,13.2H8.4V14.4H7.2zM8.4,13.2H9.6V14.4H8.4zM10.8,13.2H12V14.4H10.8zM13.2,13.2H14.4V14.4H13.2zM14.4,13.2H15.6V14.4H14.4zM19.2,13.2H20.4V14.4H19.2zM22.8,13.2H24V14.4H22.8zM24,13.2H25.2V14.4H24zM26.4,13.2H27.6V14.4H26.4zM27.6,13.2H28.8V14.4H27.6zM28.8,13.2H30V14.4H28.8zM30,13.2H31.2V14.4H30zM31.2,13.2H32.4V14.4H31.2zM32.4,13.2H33.6V14.4H32.4zM34.8,13.2H36V14.4H34.8zM37.2,13.2H38.4V14.4H37.2zM38.4,13.2H39.6V14.4H38.4zM39.6,13.2H40.8V14.4H39.6zM40.8,13.2H42V14.4H40.8zM44.4,13.2H45.6V14.4H44.4zM45.6,13.2H46.8V14.4H45.6zM46.8,13.2H48V14.4H46.8zM4.8,14.4H6V15.6H4.8zM6,14.4H7.2V15.6H6zM8.4,14.4H9.6V15.6H8.4zM9.6,14.4H10.8V15.6H9.6zM15.6,14.4H16.8V15.6H15.6zM18,14.4H19.2V15.6H18zM21.6,14.4H22.8V15.6H21.6zM22.8,14.4H24V15.6H22.8zM25.2,14.4H26.4V15.6H25.2zM27.6,14.4H28.8V15.6H27.6zM28.8,14.4H30V15.6H28.8zM30,14.4H31.2V15.6H30zM31.2,14.4H32.4V15.6H31.2zM33.6,14.4H34.8V15.6H33.6zM36,14.4H37.2V15.6H36zM39.6,14.4H40.8V15.6H39.6zM40.8,14.4H42V15.6H40.8zM42,14.4H43.2V15.6H42zM43.2,14.4H44.4V15.6H43.2zM6,15.6H7.2V16.8H6zM10.8,15.6H12V16.8H10.8zM13.2,15.6H14.4V16.8H13.2zM14.4,15.6H15.6V16.8H14.4zM15.6,15.6H16.8V16.8H15.6zM16.8,15.6H18V16.8H16.8zM19.2,15.6H20.4V16.8H19.2zM21.6,15.6H22.8V16.8H21.6zM22.8,15.6H24V16.8H22.8zM24,15.6H25.2V16.8H24zM25.2,15.6H26.4V16.8H25.2zM27.6,15.6H28.8V16.8H27.6zM28.8,15.6H30V16.8H28.8zM30,15.6H31.2V16.8H30zM33.6,15.6H34.8V16.8H33.6zM34.8,15.6H36V16.8H34.8zM36,15.6H37.2V16.8H36zM37.2,15.6H38.4V16.8H37.2zM39.6,15.6H40.8V16.8H39.6zM42,15.6H43.2V16.8H42zM43.2,15.6H44.4V16.8H43.2zM45.6,15.6H46.8V16.8H45.6zM46.8,15.6H48V16.8H46.8zM3.6,16.8H4.8V18H3.6zM6,16.8H7.2V18H6zM9.6,16.8H10.8V18H9.6zM19.2,16.8H20.4V18H19.2zM22.8,16.8H24V18H22.8zM34.8,16.8H36V18H34.8zM36,16.8H37.2V18H36zM39.6,16.8H40.8V18H39.6zM40.8,16.8H42V18H40.8zM42,16.8H43.2V18H42zM3.6,18H4.8V19.2H3.6zM4.8,18H6V19.2H4.8zM8.4,18H9.6V19.2H8.4zM9.6,18H10.8V19.2H9.6zM10.8,18H12V19.2H10.8zM13.2,18H14.4V19.2H13.2zM16.8,18H18V19.2H16.8zM21.6,18H22.8V19.2H21.6zM24,18H25.2V19.2H24zM28.8,18H30V19.2H28.8zM32.4,18H33.6V19.2H32.4zM33.6,18H34.8V19.2H33.6zM34.8,18H36V19.2H34.8zM36,18H37.2V19.2H36zM38.4,18H39.6V19.2H38.4zM39.6,18H40.8V19.2H39.6zM42,18H43.2V19.2H42zM44.4,18H45.6V19.2H44.4zM46.8,18H48V19.2H46.8zM6,19.2H7.2V20.4H6zM7.2,19.2H8.4V20.4H7.2zM8.4,19.2H9.6V20.4H8.4zM9.6,19.2H10.8V20.4H9.6zM12,19.2H13.2V20.4H12zM13.2,19.2H14.4V20.4H13.2zM19.2,19.2H20.4V20.4H19.2zM20.4,19.2H21.6V20.4H20.4zM21.6,19.2H22.8V20.4H21.6zM22.8,19.2H24V20.4H22.8zM24,19.2H25.2V20.4H24zM25.2,19.2H26.4V20.4H25.2zM26.4,19.2H27.6V20.4H26.4zM27.6,19.2H28.8V20.4H27.6zM28.8,19.2H30V20.4H28.8zM30,19.2H31.2V20.4H30zM31.2,19.2H32.4V20.4H31.2zM33.6,19.2H34.8V20.4H33.6zM37.2,19.2H38.4V20.4H37.2zM38.4,19.2H39.6V20.4H38.4zM40.8,19.2H42V20.4H40.8zM43.2,19.2H44.4V20.4H43.2zM44.4,19.2H45.6V20.4H44.4zM3.6,20.4H4.8V21.6H3.6zM4.8,20.4H6V21.6H4.8zM7.2,20.4H8.4V21.6H7.2zM8.4,20.4H9.6V21.6H8.4zM10.8,20.4H12V21.6H10.8zM12,20.4H13.2V21.6H12zM13.2,20.4H14.4V21.6H13.2zM14.4,20.4H15.6V21.6H14.4zM16.8,20.4H18V21.6H16.8zM18,20.4H19.2V21.6H18zM20.4,20.4H21.6V21.6H20.4zM22.8,20.4H24V21.6H22.8zM25.2,20.4H26.4V21.6H25.2zM26.4,20.4H27.6V21.6H26.4zM27.6,20.4H28.8V21.6H27.6zM33.6,20.4H34.8V21.6H33.6zM34.8,20.4H36V21.6H34.8zM36,20.4H37.2V21.6H36zM39.6,20.4H40.8V21.6H39.6zM42,20.4H43.2V21.6H42zM43.2,20.4H44.4V21.6H43.2zM45.6,20.4H46.8V21.6H45.6zM46.8,20.4H48V21.6H46.8zM4.8,21.6H6V22.8H4.8zM6,21.6H7.2V22.8H6zM7.2,21.6H8.4V22.8H7.2zM9.6,21.6H10.8V22.8H9.6zM16.8,21.6H18V22.8H16.8zM19.2,21.6H20.4V22.8H19.2zM20.4,21.6H21.6V22.8H20.4zM24,21.6H25.2V22.8H24zM25.2,21.6H26.4V22.8H25.2zM27.6,21.6H28.8V22.8H27.6zM28.8,21.6H30V22.8H28.8zM32.4,21.6H33.6V22.8H32.4zM36,21.6H37.2V22.8H36zM37.2,21.6H38.4V22.8H37.2zM38.4,21.6H39.6V22.8H38.4zM39.6,21.6H40.8V22.8H39.6zM40.8,21.6H42V22.8H40.8zM42,21.6H43.2V22.8H42zM45.6,21.6H46.8V22.8H45.6zM46.8,21.6H48V22.8H46.8zM3.6,22.8H4.8V24H3.6zM4.8,22.8H6V24H4.8zM6,22.8H7.2V24H6zM10.8,22.8H12V24H10.8zM12,22.8H13.2V24H12zM13.2,22.8H14.4V24H13.2zM14.4,22.8H15.6V24H14.4zM15.6,22.8H16.8V24H15.6zM18,22.8H19.2V24H18zM25.2,22.8H26.4V24H25.2zM26.4,22.8H27.6V24H26.4zM27.6,22.8H28.8V24H27.6zM28.8,22.8H30V24H28.8zM31.2,22.8H32.4V24H31.2zM33.6,22.8H34.8V24H33.6zM34.8,22.8H36V24H34.8zM38.4,22.8H39.6V24H38.4zM39.6,22.8H40.8V24H39.6zM42,22.8H43.2V24H42zM44.4,22.8H45.6V24H44.4zM45.6,22.8H46.8V24H45.6zM4.8,24H6V25.2H4.8zM6,24H7.2V25.2H6zM9.6,24H10.8V25.2H9.6zM12,24H13.2V25.2H12zM14.4,24H15.6V25.2H14.4zM16.8,24H18V25.2H16.8zM19.2,24H20.4V25.2H19.2zM21.6,24H22.8V25.2H21.6zM22.8,24H24V25.2H22.8zM27.6,24H28.8V25.2H27.6zM31.2,24H32.4V25.2H31.2zM32.4,24H33.6V25.2H32.4zM34.8,24H36V25.2H34.8zM37.2,24H38.4V25.2H37.2zM40.8,24H42V25.2H40.8zM44.4,24H45.6V25.2H44.4zM7.2,25.2H8.4V26.4H7.2zM8.4,25.2H9.6V26.4H8.4zM9.6,25.2H10.8V26.4H9.6zM10.8,25.2H12V26.4H10.8zM14.4,25.2H15.6V26.4H14.4zM18,25.2H19.2V26.4H18zM20.4,25.2H21.6V26.4H20.4zM21.6,25.2H22.8V26.4H21.6zM22.8,25.2H24V26.4H22.8zM26.4,25.2H27.6V26.4H26.4zM27.6,25.2H28.8V26.4H27.6zM28.8,25.2H30V26.4H28.8zM30,25.2H31.2V26.4H30zM31.2,25.2H32.4V26.4H31.2zM33.6,25.2H34.8V26.4H33.6zM34.8,25.2H36V26.4H34.8zM36,25.2H37.2V26.4H36zM38.4,25.2H39.6V26.4H38.4zM39.6,25.2H40.8V26.4H39.6zM40.8,25.2H42V26.4H40.8zM42,25.2H43.2V26.4H42zM45.6,25.2H46.8V26.4H45.6zM46.8,25.2H48V26.4H46.8zM6,26.4H7.2V27.6H6zM7.2,26.4H8.4V27.6H7.2zM9.6,26.4H10.8V27.6H9.6zM13.2,26.4H14.4V27.6H13.2zM14.4,26.4H15.6V27.6H14.4zM20.4,26.4H21.6V27.6H20.4zM22.8,26.4H24V27.6H22.8zM24,26.4H25.2V27.6H24zM25.2,26.4H26.4V27.6H25.2zM30,26.4H31.2V27.6H30zM31.2,26.4H32.4V27.6H31.2zM37.2,26.4H38.4V27.6H37.2zM38.4,26.4H39.6V27.6H38.4zM39.6,26.4H40.8V27.6H39.6zM46.8,26.4H48V27.6H46.8zM3.6,27.6H4.8V28.8H3.6zM6,27.6H7.2V28.8H6zM9.6,27.6H10.8V28.8H9.6zM10.8,27.6H12V28.8H10.8zM13.2,27.6H14.4V28.8H13.2zM15.6,27.6H16.8V28.8H15.6zM22.8,27.6H24V28.8H22.8zM25.2,27.6H26.4V28.8H25.2zM28.8,27.6H30V28.8H28.8zM30,27.6H31.2V28.8H30zM31.2,27.6H32.4V28.8H31.2zM32.4,27.6H33.6V28.8H32.4zM33.6,27.6H34.8V28.8H33.6zM34.8,27.6H36V28.8H34.8zM36,27.6H37.2V28.8H36zM38.4,27.6H39.6V28.8H38.4zM39.6,27.6H40.8V28.8H39.6zM40.8,27.6H42V28.8H40.8zM42,27.6H43.2V28.8H42zM44.4,27.6H45.6V28.8H44.4zM45.6,27.6H46.8V28.8H45.6zM46.8,27.6H48V28.8H46.8zM4.8,28.8H6V30H4.8zM7.2,28.8H8.4V30H7.2zM8.4,28.8H9.6V30H8.4zM12,28.8H13.2V30H12zM16.8,28.8H18V30H16.8zM18,28.8H19.2V30H18zM19.2,28.8H20.4V30H19.2zM25.2,28.8H26.4V30H25.2zM28.8,28.8H30V30H28.8zM30,28.8H31.2V30H30zM34.8,28.8H36V30H34.8zM38.4,28.8H39.6V30H38.4zM40.8,28.8H42V30H40.8zM45.6,28.8H46.8V30H45.6zM3.6,30H4.8V31.2H3.6zM4.8,30H6V31.2H4.8zM6,30H7.2V31.2H6zM9.6,30H10.8V31.2H9.6zM10.8,30H12V31.2H10.8zM18,30H19.2V31.2H18zM20.4,30H21.6V31.2H20.4zM21.6,30H22.8V31.2H21.6zM25.2,30H26.4V31.2H25.2zM27.6,30H28.8V31.2H27.6zM28.8,30H30V31.2H28.8zM30,30H31.2V31.2H30zM31.2,30H32.4V31.2H31.2zM36,30H37.2V31.2H36zM39.6,30H40.8V31.2H39.6zM45.6,30H46.8V31.2H45.6zM46.8,30H48V31.2H46.8zM3.6,31.2H4.8V32.4H3.6zM4.8,31.2H6V32.4H4.8zM8.4,31.2H9.6V32.4H8.4zM12,31.2H13.2V32.4H12zM13.2,31.2H14.4V32.4H13.2zM18,31.2H19.2V32.4H18zM19.2,31.2H20.4V32.4H19.2zM26.4,31.2H27.6V32.4H26.4zM28.8,31.2H30V32.4H28.8zM31.2,31.2H32.4V32.4H31.2zM34.8,31.2H36V32.4H34.8zM38.4,31.2H39.6V32.4H38.4zM39.6,31.2H40.8V32.4H39.6zM40.8,31.2H42V32.4H40.8zM43.2,31.2H44.4V32.4H43.2zM45.6,31.2H46.8V32.4H45.6zM46.8,31.2H48V32.4H46.8zM4.8,32.4H6V33.6H4.8zM9.6,32.4H10.8V33.6H9.6zM10.8,32.4H12V33.6H10.8zM12,32.4H13.2V33.6H12zM13.2,32.4H14.4V33.6H13.2zM15.6,32.4H16.8V33.6H15.6zM18,32.4H19.2V33.6H18zM20.4,32.4H21.6V33.6H20.4zM21.6,32.4H22.8V33.6H21.6zM24,32.4H25.2V33.6H24zM26.4,32.4H27.6V33.6H26.4zM27.6,32.4H28.8V33.6H27.6zM30,32.4H31.2V33.6H30zM31.2,32.4H32.4V33.6H31.2zM39.6,32.4H40.8V33.6H39.6zM43.2,32.4H44.4V33.6H43.2zM44.4,32.4H45.6V33.6H44.4zM46.8,32.4H48V33.6H46.8zM3.6,33.6H4.8V34.8H3.6zM4.8,33.6H6V34.8H4.8zM7.2,33.6H8.4V34.8H7.2zM8.4,33.6H9.6V34.8H8.4zM9.6,33.6H10.8V34.8H9.6zM14.4,33.6H15.6V34.8H14.4zM20.4,33.6H21.6V34.8H20.4zM22.8,33.6H24V34.8H22.8zM28.8,33.6H30V34.8H28.8zM32.4,33.6H33.6V34.8H32.4zM33.6,33.6H34.8V34.8H33.6zM34.8,33.6H36V34.8H34.8zM36,33.6H37.2V34.8H36zM37.2,33.6H38.4V34.8H37.2zM38.4,33.6H39.6V34.8H38.4zM39.6,33.6H40.8V34.8H39.6zM43.2,33.6H44.4V34.8H43.2zM45.6,33.6H46.8V34.8H45.6zM3.6,34.8H4.8V36H3.6zM6,34.8H7.2V36H6zM10.8,34.8H12V36H10.8zM13.2,34.8H14.4V36H13.2zM19.2,34.8H20.4V36H19.2zM21.6,34.8H22.8V36H21.6zM24,34.8H25.2V36H24zM25.2,34.8H26.4V36H25.2zM27.6,34.8H28.8V36H27.6zM28.8,34.8H30V36H28.8zM33.6,34.8H34.8V36H33.6zM39.6,34.8H40.8V36H39.6zM40.8,34.8H42V36H40.8zM42,34.8H43.2V36H42zM43.2,34.8H44.4V36H43.2zM45.6,34.8H46.8V36H45.6zM46.8,34.8H48V36H46.8zM3.6,36H4.8V37.2H3.6zM6,36H7.2V37.2H6zM8.4,36H9.6V37.2H8.4zM14.4,36H15.6V37.2H14.4zM18,36H19.2V37.2H18zM19.2,36H20.4V37.2H19.2zM20.4,36H21.6V37.2H20.4zM22.8,36H24V37.2H22.8zM24,36H25.2V37.2H24zM27.6,36H28.8V37.2H27.6zM28.8,36H30V37.2H28.8zM30,36H31.2V37.2H30zM32.4,36H33.6V37.2H32.4zM37.2,36H38.4V37.2H37.2zM38.4,36H39.6V37.2H38.4zM40.8,36H42V37.2H40.8zM42,36H43.2V37.2H42zM43.2,36H44.4V37.2H43.2zM45.6,36H46.8V37.2H45.6zM46.8,36H48V37.2H46.8zM3.6,37.2H4.8V38.4H3.6zM6,37.2H7.2V38.4H6zM7.2,37.2H8.4V38.4H7.2zM8.4,37.2H9.6V38.4H8.4zM9.6,37.2H10.8V38.4H9.6zM10.8,37.2H12V38.4H10.8zM13.2,37.2H14.4V38.4H13.2zM14.4,37.2H15.6V38.4H14.4zM16.8,37.2H18V38.4H16.8zM20.4,37.2H21.6V38.4H20.4zM21.6,37.2H22.8V38.4H21.6zM22.8,37.2H24V38.4H22.8zM24,37.2H25.2V38.4H24zM27.6,37.2H28.8V38.4H27.6zM28.8,37.2H30V38.4H28.8zM32.4,37.2H33.6V38.4H32.4zM33.6,37.2H34.8V38.4H33.6zM34.8,37.2H36V38.4H34.8zM37.2,37.2H38.4V38.4H37.2zM38.4,37.2H39.6V38.4H38.4zM39.6,37.2H40.8V38.4H39.6zM40.8,37.2H42V38.4H40.8zM42,37.2H43.2V38.4H42zM43.2,37.2H44.4V38.4H43.2zM44.4,37.2H45.6V38.4H44.4zM45.6,37.2H46.8V38.4H45.6zM46.8,37.2H48V38.4H46.8zM13.2,38.4H14.4V39.6H13.2zM14.4,38.4H15.6V39.6H14.4zM18,38.4H19.2V39.6H18zM19.2,38.4H20.4V39.6H19.2zM20.4,38.4H21.6V39.6H20.4zM21.6,38.4H22.8V39.6H21.6zM22.8,38.4H24V39.6H22.8zM25.2,38.4H26.4V39.6H25.2zM26.4,38.4H27.6V39.6H26.4zM30,38.4H31.2V39.6H30zM31.2,38.4H32.4V39.6H31.2zM36,38.4H37.2V39.6H36zM37.2,38.4H38.4V39.6H37.2zM42,38.4H43.2V39.6H42zM3.6,39.6H4.8V40.8H3.6zM4.8,39.6H6V40.8H4.8zM6,39.6H7.2V40.8H6zM7.2,39.6H8.4V40.8H7.2zM8.4,39.6H9.6V40.8H8.4zM9.6,39.6H10.8V40.8H9.6zM10.8,39.6H12V40.8H10.8zM15.6,39.6H16.8V40.8H15.6zM18,39.6H19.2V40.8H18zM27.6,39.6H28.8V40.8H27.6zM30,39.6H31.2V40.8H30zM32.4,39.6H33.6V40.8H32.4zM34.8,39.6H36V40.8H34.8zM37.2,39.6H38.4V40.8H37.2zM39.6,39.6H40.8V40.8H39.6zM42,39.6H43.2V40.8H42zM43.2,39.6H44.4V40.8H43.2zM45.6,39.6H46.8V40.8H45.6zM46.8,39.6H48V40.8H46.8zM3.6,40.8H4.8V42H3.6zM10.8,40.8H12V42H10.8zM15.6,40.8H16.8V42H15.6zM16.8,40.8H18V42H16.8zM18,40.8H19.2V42H18zM21.6,40.8H22.8V42H21.6zM22.8,40.8H24V42H22.8zM26.4,40.8H27.6V42H26.4zM27.6,40.8H28.8V42H27.6zM28.8,40.8H30V42H28.8zM30,40.8H31.2V42H30zM31.2,40.8H32.4V42H31.2zM37.2,40.8H38.4V42H37.2zM42,40.8H43.2V42H42zM45.6,40.8H46.8V42H45.6zM46.8,40.8H48V42H46.8zM3.6,42H4.8V43.2H3.6zM6,42H7.2V43.2H6zM7.2,42H8.4V43.2H7.2zM8.4,42H9.6V43.2H8.4zM10.8,42H12V43.2H10.8zM13.2,42H14.4V43.2H13.2zM14.4,42H15.6V43.2H14.4zM15.6,42H16.8V43.2H15.6zM16.8,42H18V43.2H16.8zM21.6,42H22.8V43.2H21.6zM24,42H25.2V43.2H24zM27.6,42H28.8V43.2H27.6zM28.8,42H30V43.2H28.8zM30,42H31.2V43.2H30zM31.2,42H32.4V43.2H31.2zM32.4,42H33.6V43.2H32.4zM33.6,42H34.8V43.2H33.6zM34.8,42H36V43.2H34.8zM36,42H37.2V43.2H36zM37.2,42H38.4V43.2H37.2zM38.4,42H39.6V43.2H38.4zM39.6,42H40.8V43.2H39.6zM40.8,42H42V43.2H40.8zM42,42H43.2V43.2H42zM44.4,42H45.6V43.2H44.4zM3.6,43.2H4.8V44.4H3.6zM6,43.2H7.2V44.4H6zM7.2,43.2H8.4V44.4H7.2zM8.4,43.2H9.6V44.4H8.4zM10.8,43.2H12V44.4H10.8zM13.2,43.2H14.4V44.4H13.2zM14.4,43.2H15.6V44.4H14.4zM16.8,43.2H18V44.4H16.8zM18,43.2H19.2V44.4H18zM24,43.2H25.2V44.4H24zM25.2,43.2H26.4V44.4H25.2zM26.4,43.2H27.6V44.4H26.4zM27.6,43.2H28.8V44.4H27.6zM30,43.2H31.2V44.4H30zM33.6,43.2H34.8V44.4H33.6zM34.8,43.2H36V44.4H34.8zM36,43.2H37.2V44.4H36zM39.6,43.2H40.8V44.4H39.6zM42,43.2H43.2V44.4H42zM43.2,43.2H44.4V44.4H43.2zM44.4,43.2H45.6V44.4H44.4zM3.6,44.4H4.8V45.6H3.6zM6,44.4H7.2V45.6H6zM7.2,44.4H8.4V45.6H7.2zM8.4,44.4H9.6V45.6H8.4zM10.8,44.4H12V45.6H10.8zM13.2,44.4H14.4V45.6H13.2zM15.6,44.4H16.8V45.6H15.6zM18,44.4H19.2V45.6H18zM19.2,44.4H20.4V45.6H19.2zM21.6,44.4H22.8V45.6H21.6zM22.8,44.4H24V45.6H22.8zM25.2,44.4H26.4V45.6H25.2zM26.4,44.4H27.6V45.6H26.4zM27.6,44.4H28.8V45.6H27.6zM28.8,44.4H30V45.6H28.8zM31.2,44.4H32.4V45.6H31.2zM32.4,44.4H33.6V45.6H32.4zM38.4,44.4H39.6V45.6H38.4zM40.8,44.4H42V45.6H40.8zM46.8,44.4H48V45.6H46.8zM3.6,45.6H4.8V46.8H3.6zM10.8,45.6H12V46.8H10.8zM14.4,45.6H15.6V46.8H14.4zM15.6,45.6H16.8V46.8H15.6zM16.8,45.6H18V46.8H16.8zM21.6,45.6H22.8V46.8H21.6zM26.4,45.6H27.6V46.8H26.4zM27.6,45.6H28.8V46.8H27.6zM30,45.6H31.2V46.8H30zM31.2,45.6H32.4V46.8H31.2zM34.8,45.6H36V46.8H34.8zM37.2,45.6H38.4V46.8H37.2zM38.4,45.6H39.6V46.8H38.4zM39.6,45.6H40.8V46.8H39.6zM42,45.6H43.2V46.8H42zM46.8,45.6H48V46.8H46.8zM3.6,46.8H4.8V48H3.6zM4.8,46.8H6V48H4.8zM6,46.8H7.2V48H6zM7.2,46.8H8.4V48H7.2zM8.4,46.8H9.6V48H8.4zM9.6,46.8H10.8V48H9.6zM10.8,46.8H12V48H10.8zM15.6,46.8H16.8V48H15.6zM16.8,46.8H18V48H16.8zM18,46.8H19.2V48H18zM21.6,46.8H22.8V48H21.6zM22.8,46.8H24V48H22.8zM25.2,46.8H26.4V48H25.2zM26.4,46.8H27.6V48H26.4zM27.6,46.8H28.8V48H27.6zM28.8,46.8H30V48H28.8zM30,46.8H31.2V48H30zM31.2,46.8H32.4V48H31.2zM32.4,46.8H33.6V48H32.4zM33.6,46.8H34.8V48H33.6zM39.6,46.8H40.8V48H39.6zM40.8,46.8H42V48H40.8zM42,46.8H43.2V48H42zM44.4,46.8H45.6V48H44.4zM45.6,46.8H46.8V48H45.6zM46.8,46.8H48V48H46.8z" id="qr-path" fill="#000000" fill-opacity="1" fill-rule="nonzero" stroke="none"/></svg>